<?xml version="1.0" encoding="UTF-8"?>
<!DOCTYPE svg PUBLIC "-//W3C//DTD SVG 1.1//EN" "http://www.w3.org/Graphics/SVG/1.1/DTD/svg11.dtd">
<!-- Creator: CorelDRAW X7 -->
<svg xmlns="http://www.w3.org/2000/svg" xml:space="preserve" width="80px" height="60px" version="1.1" style="shape-rendering:geometricPrecision; text-rendering:geometricPrecision; image-rendering:optimizeQuality; fill-rule:evenodd; clip-rule:evenodd"
viewBox="0 0 80 60"
 xmlns:xlink="http://www.w3.org/1999/xlink"
 enable-background="new 0 0 758.621 579.071">
 <defs>
  <style type="text/css">
   <![CDATA[
    .fil0 {fill:#ED1C24}
   ]]>
  </style>
 </defs>
 <g id="Camada_x0020_1">
  <metadata id="CorelCorpID_0Corel-Layer"/>
  <g id="_1413477682656">
   <path class="fil0" d="M44 30c-1,0 -3,0 -4,0 -2,0 -4,0 -6,0 0,0 3,11 0,25 2,1 3,1 5,1 2,0 3,0 5,-1 -3,-15 0,-25 0,-25z"/>
   <path class="fil0" d="M44 51c0,1 1,3 1,4l0 1 -1 0c-2,0 -3,0 -5,0 -2,0 -3,0 -5,0l-1 0 1 -1c0,-1 0,-3 0,-4 -8,1 -14,2 -14,4 0,2 8,4 17,4 1,0 2,0 3,0 1,0 1,0 2,0 10,0 18,-2 18,-4 0,-2 -7,-3 -16,-4z"/>
   <g>
    <path class="fil0" d="M71 18c0,0 0,0 0,0 0,0 0,0 0,0 0,0 0,0 0,0 0,0 0,0 0,0z"/>
    <path class="fil0" d="M44 13c0,0 0,1 0,1l0 5c0,2 -2,3 -3,3l-3 0c-2,0 -3,-1 -3,-3l0 -5c0,0 0,-1 0,-1 -19,1 -34,4 -34,8 0,4 15,8 33,8 2,0 4,0 6,0 1,0 3,0 4,0 19,0 34,-4 34,-8 1,-4 -15,-8 -34,-8zm-35 5c0,0 1,-1 1,-1l3 0c0,0 0,0 0,1 0,0 1,0 1,0 1,-1 3,0 4,-1 0,1 -1,1 -3,1 -1,0 -1,0 -2,0 0,0 0,0 0,0l-3 0c0,0 -1,0 -1,0l0 0zm10 5c0,0 0,0 0,0 -1,0 -1,0 -1,0 -1,0 -1,0 -1,0 0,0 0,0 0,0 0,0 0,0 0,0 0,0 0,0 0,0 0,0 0,0 0,0 1,0 1,0 2,0 0,0 0,0 0,0 0,0 0,0 0,0 0,0 0,0 0,0 -1,0 -1,0 -1,0 -1,0 -1,0 -1,0 0,0 0,0 0,0 0,0 0,0 0,0 1,0 1,0 2,0 0,0 0,0 0,0 0,0 0,0 0,0 0,0 0,0 0,0 -1,0 -1,0 -2,0 0,0 0,0 0,0 0,0 0,0 0,0 0,0 0,0 0,0 0,0 0,0 0,0 1,0 1,0 2,0 0,0 0,0 0,0 0,0 0,0 0,0 0,0 0,0 0,0 0,0 0,0 0,0 -1,0 -1,0 -1,0 -1,0 -1,0 -1,0 -1,0 -1,0 -1,0 0,0 -1,0 -1,0 0,0 0,0 0,0 -1,0 -1,0 -2,0 0,0 -1,0 -2,0 0,0 -1,0 -1,0 0,0 0,0 0,0 -1,0 -1,0 -1,0 0,0 0,0 1,0 0,0 0,0 1,0 0,0 1,0 1,0 1,0 2,0 2,0 0,0 1,0 1,0 0,0 0,0 0,0 0,0 1,0 1,0 0,-1 1,-1 1,-1 1,1 1,1 2,1 0,0 0,0 0,0 0,0 0,0 0,0zm-4 -1c0,0 0,0 -1,0 0,0 -1,0 -1,0 -4,0 -7,-1 -7,-2 0,-1 4,-1 8,-1 5,0 8,0 8,1 0,1 -3,2 -7,2zm47 -4c0,0 0,0 0,0 1,0 1,0 2,0 0,0 0,0 0,0 0,0 1,0 1,0 0,0 0,0 0,0 0,0 0,0 0,0 -1,0 -1,0 -1,0 0,0 -1,0 -2,0 0,0 0,0 0,0 0,0 0,0 0,0 0,0 0,0 0,0 1,0 1,0 2,0 0,0 0,0 0,0 1,0 1,0 1,0 0,0 0,0 -1,0 0,0 -1,0 -2,0 0,0 0,0 0,0 0,0 0,0 0,0 0,0 0,0 1,0 0,0 1,0 1,0 0,0 0,0 1,0 0,0 0,0 0,0 0,0 0,0 0,0 -1,0 -1,0 -1,0 -1,0 -1,0 -1,0 0,0 -1,0 -1,0 0,0 0,0 0,0 0,0 0,0 0,0 0,0 0,0 0,0 1,0 1,0 2,0 0,0 0,-1 1,-1 0,0 0,1 0,1 1,0 1,0 1,0 0,0 1,0 1,0 0,0 1,0 1,0 1,0 1,0 2,0 0,0 1,0 1,0 1,0 1,0 1,0 0,0 0,0 0,0 0,0 0,0 0,0 -1,0 -1,0 -2,0 0,0 -1,0 -1,0 -1,0 -1,0 -2,0 0,0 0,0 0,0 -1,0 -1,0 -1,0 0,0 0,0 -1,0 0,0 0,0 -1,0 0,0 -1,0 -1,0 -1,0 -1,0 -1,0 0,0 0,0 0,0zm10 5c0,0 0,0 -1,0l-3 0c0,0 0,0 0,0 0,0 0,0 0,0 -2,0 -4,0 -5,0 0,0 2,0 4,0 0,0 1,0 1,0 0,0 0,0 0,0l3 0c1,0 1,0 1,0l0 0zm-5 -1c-4,0 -8,-1 -8,-2 0,-1 3,-1 7,-1 1,0 1,0 1,0 0,0 1,0 1,0 4,0 7,1 7,1 0,1 -4,2 -8,2z"/>
    <path class="fil0" d="M71 18c0,0 0,0 0,0 0,0 0,0 -1,0 0,0 0,0 0,0 1,0 1,0 1,0z"/>
   </g>
   <g>
    <path class="fil0" d="M42 12c0,0 0,-1 0,-3 0,0 0,0 1,-1 -1,0 -2,0 -3,0 0,-1 1,-2 1,-3 0,0 0,0 0,0 0,1 1,0 1,0l0 0c0,-1 0,-1 0,-1 0,0 0,0 0,0l0 0c0,0 0,0 0,0l0 -1c0,0 0,0 0,0 0,0 -1,0 -1,1 0,0 0,0 0,0l1 0c0,0 0,0 0,0l-1 0c0,0 0,0 0,0 0,1 0,1 0,1 -1,1 -1,2 -1,4 -1,0 -1,0 -1,0 0,-2 0,-4 -1,-5 0,0 0,0 0,0l0 -1c-1,0 -1,0 -1,0l-1 1c0,0 0,0 0,0 1,1 1,1 2,1 0,0 1,2 1,4 0,0 -1,0 -1,0 0,-1 0,-1 -1,-2 0,0 0,0 -1,0 0,0 0,0 0,0 0,-1 0,-1 0,-1l0 0c-1,0 -1,1 -1,1l0 0c0,1 1,1 1,1 0,0 0,-1 0,-1 1,0 1,0 1,0 0,1 1,1 1,1 -1,0 -2,0 -2,0 0,1 0,1 0,1 1,2 1,3 0,3l0 0c0,1 -1,1 -1,2l0 5c0,1 1,2 3,2l3 0c1,0 2,-1 2,-2l0 -5c0,-1 0,-1 -1,-2l0 0z"/>
    <path class="fil0" d="M38 3l1 0c0,1 0,1 0,0 0,0 0,-1 0,-1 0,-1 0,-1 0,0l-1 0c-1,0 -1,1 0,1z"/>
    <path class="fil0" d="M36 3l1 0c0,0 0,-1 0,-1l-1 0c0,-1 0,-1 -1,0 0,0 0,1 0,1 1,1 1,1 1,0z"/>
    <path class="fil0" d="M37 2c0,0 0,0 1,0l0 -1c0,0 0,0 0,0 0,-1 -1,-1 -2,0 0,0 0,0 0,0l1 1z"/>
    <path class="fil0" d="M43 3c0,0 0,0 -1,0l0 1c0,0 0,0 0,0l1 0c0,0 1,0 0,0 0,0 0,-1 0,-1z"/>
    <path class="fil0" d="M43 5l-1 -1c0,0 0,0 0,1l0 0c0,0 0,1 0,1 1,0 1,-1 1,-1 0,0 0,0 0,0z"/>
    <path class="fil0" d="M36 6l0 0c0,0 1,0 1,0 -1,0 -1,-1 -1,-1 0,0 -1,0 -1,0l0 1c0,0 0,0 1,0z"/>
    <path class="fil0" d="M35 6l-1 1c0,0 0,0 0,0 0,0 1,1 1,1 0,0 0,0 0,-1l0 0c0,0 0,-1 0,-1z"/>
    <path class="fil0" d="M34 6l1 0c0,0 0,0 0,0l0 -1c0,0 0,0 0,0 -1,0 -1,1 -1,1 0,0 0,0 0,0z"/>
   </g>
  </g>
 </g>
</svg>
