<?xml version="1.0" encoding="UTF-8"?>
<!DOCTYPE svg PUBLIC "-//W3C//DTD SVG 1.1//EN" "http://www.w3.org/Graphics/SVG/1.1/DTD/svg11.dtd">
<!-- Creator: CorelDRAW X8 -->
<svg xmlns="http://www.w3.org/2000/svg" xml:space="preserve" width="21.2358mm" height="15.9979mm" version="1.1" style="shape-rendering:geometricPrecision; text-rendering:geometricPrecision; image-rendering:optimizeQuality; fill-rule:evenodd; clip-rule:evenodd"
viewBox="0 0 478 360"
 xmlns:xlink="http://www.w3.org/1999/xlink">
 <defs>
  <style type="text/css">
   <![CDATA[
    .str0 {stroke:#FEFEFE;stroke-width:8.99824}
    .str1 {stroke:#FEFEFE;stroke-width:2.24956}
    .fil1 {fill:#FEFEFE}
    .fil0 {fill:#8AD647}
   ]]>
  </style>
 </defs>
 <g id="Camada_x0020_1">
  <metadata id="CorelCorpID_0Corel-Layer"/>
  <g id="_708571784352">
   <g>
    <path class="fil0" d="M352 204l-37 0 0 31 -43 0 0 -31 -173 0 0 31 -42 0 0 -31c-39,0 -30,2 -57,-16l0 172 385 0 0 -175c-5,3 -19,19 -33,19z"/>
    <path class="fil0" d="M144 71l97 0 0 22 -97 0 0 -22zm-16 -9l0 31 -128 0 0 75c0,15 20,29 43,29l14 0 0 -12 42 0 0 12 173 0 0 -12 43 0 0 12c23,0 51,3 64,-21 9,-15 6,-58 6,-83l-129 0c0,-20 4,-38 -6,-38l-115 0c-4,0 -7,3 -7,7z"/>
   </g>
   <circle class="fil0 str0" cx="385" cy="93" r="89"/>
   <path class="fil1 str1" d="M459 93l0 0c0,10 -8,18 -18,18l-38 0 0 39c0,10 -8,18 -18,18l0 0c-10,0 -18,-8 -18,-18l0 -39 -39 0c-10,0 -18,-8 -18,-18l0 0c0,-10 8,-18 18,-18l39 0 0 -39c0,-10 8,-18 18,-18l0 0c10,0 18,8 18,18l0 39 38 0c10,0 18,8 18,18z"/>
  </g>
 </g>
</svg>
