<?xml version="1.0" encoding="UTF-8"?>
<!DOCTYPE svg PUBLIC "-//W3C//DTD SVG 1.1//EN" "http://www.w3.org/Graphics/SVG/1.1/DTD/svg11.dtd">
<!-- Creator: CorelDRAW X7 -->
<svg xmlns="http://www.w3.org/2000/svg" xml:space="preserve" width="30px" height="30px" version="1.1" style="shape-rendering:geometricPrecision; text-rendering:geometricPrecision; image-rendering:optimizeQuality; fill-rule:evenodd; clip-rule:evenodd"
viewBox="0 0 30 30"
 xmlns:xlink="http://www.w3.org/1999/xlink"
 enable-background="new 0 0 758.621 579.071">
 <defs>
  <style type="text/css">
   <![CDATA[
    .fil0 {fill:#73BAB1}
   ]]>
  </style>
 </defs>
 <g id="Camada_x0020_1">
  <metadata id="CorelCorpID_0Corel-Layer"/>
  <g id="_2511071955376">
   <path class="fil0" d="M17 15c-1,0 -1,0 -2,0 -1,0 -1,0 -2,0 0,0 1,4 0,10 0,0 1,0 2,0 0,0 1,0 2,0 -2,-6 0,-10 0,-10z"/>
   <path class="fil0" d="M17 23c0,0 0,1 0,2l0 0 0 0c-1,0 -2,0 -2,0 -1,0 -2,0 -2,0l0 0 0 0c0,-1 0,-1 0,-2 -3,0 -5,1 -5,2 0,0 2,1 6,1 0,0 1,0 1,0 0,0 1,0 1,0 4,0 6,-1 6,-1 0,-1 -2,-2 -5,-2z"/>
   <g>
    <path class="fil0" d="M27 10c0,0 0,0 0,0 0,0 0,0 0,0 0,0 0,0 0,0 0,0 0,0 0,0z"/>
    <path class="fil0" d="M16 9c0,0 1,0 1,0l0 2c0,0 -1,1 -2,1l-1 0c-1,0 -1,-1 -1,-1l0 -2c0,0 0,0 0,0 -7,0 -13,1 -13,3 0,1 6,3 13,3 1,0 1,0 2,0 1,0 1,0 2,0 7,0 13,-2 13,-3 0,-2 -6,-3 -14,-3zm-13 1c0,0 0,0 1,0l1 0c0,0 0,0 0,0 0,0 0,0 0,0 1,0 1,0 2,0 0,0 -1,0 -2,0 0,0 0,0 0,0 0,0 0,0 0,0l-1 0c-1,0 -1,0 -1,0l0 0zm4 2c0,0 0,0 0,0 0,0 0,0 -1,0 0,0 0,0 0,0 0,0 0,0 0,0 0,0 0,0 0,0 0,0 0,0 0,0 0,0 0,0 0,0 1,0 1,0 1,0 0,0 0,0 0,0 0,0 0,0 0,0 0,0 0,0 0,0 0,0 0,0 0,0 -1,0 -1,0 -1,0 0,0 0,0 0,0 0,0 0,0 0,0 0,0 1,0 1,0 0,0 0,0 0,0 0,0 0,0 0,0 0,0 0,0 0,0 0,0 -1,0 -1,0 0,0 0,0 0,0 0,0 0,0 0,0 0,0 0,0 0,0 0,0 0,0 0,0 1,0 1,0 1,0 0,0 0,0 0,0 0,0 0,0 0,0 0,0 0,0 0,0 0,0 0,0 0,0 0,0 0,0 -1,0 0,0 0,0 0,0 0,0 0,0 0,0 0,0 0,0 0,0 -1,0 -1,0 -1,0 0,0 0,0 0,0 0,0 -1,0 -1,0 0,0 0,0 0,0 0,0 -1,0 -1,0 0,0 0,0 0,0 0,0 0,0 0,0 1,0 1,0 1,0 0,0 0,0 1,0 0,0 0,0 0,0 0,0 0,0 0,0 0,0 1,0 1,0 0,0 0,0 0,0 0,0 0,0 0,0 0,0 1,0 1,0 0,0 0,0 0,0 0,0 0,0 0,0zm-1 0c-1,0 -1,0 -1,0 0,0 0,0 0,0 -2,0 -3,0 -3,-1 0,0 2,0 3,0 2,0 3,0 3,0 0,1 -1,1 -2,1zm17 -2c0,0 0,0 1,0 0,0 0,0 0,0 0,0 0,0 0,0 0,0 0,0 0,0 0,0 0,0 0,0 0,0 0,0 0,0 0,0 0,0 0,0 0,0 0,0 0,0 0,0 -1,0 -1,0 0,0 0,0 0,0 0,0 1,0 1,0 0,0 0,0 0,0 0,0 0,0 0,0 0,0 0,0 0,0 0,0 0,0 0,0 0,0 0,0 0,0 -1,0 -1,0 -1,0 0,0 0,0 0,0 0,0 1,0 1,0 0,0 0,0 0,0 0,0 0,0 0,0 0,0 0,0 0,0 0,0 0,0 0,0 0,0 0,0 0,0 0,0 0,0 0,0 0,0 0,0 -1,0 0,0 0,0 0,0 0,0 0,0 0,0 0,0 1,0 1,0 0,0 0,0 0,0 0,0 0,0 0,0 0,0 1,0 1,0 0,0 0,0 0,0 0,0 0,0 0,0 0,0 0,0 1,0 0,0 0,0 0,0 1,0 1,0 1,0 0,0 0,0 0,0 0,0 0,0 0,0 0,0 0,0 0,0 0,0 0,0 0,0 -1,0 -1,0 -1,0 0,0 0,0 -1,0 0,0 0,0 0,0 0,0 0,0 0,0 0,0 0,0 0,0 0,0 -1,1 -1,0 0,0 0,0 0,0 0,0 -1,0 -1,0 0,0 0,0 0,0zm4 2c0,0 0,0 0,0l-1 0c0,0 0,0 0,0 0,0 0,0 -1,0 0,0 -1,0 -1,0 0,0 0,0 1,0 0,0 1,0 1,0 0,0 0,0 0,0l1 0c0,0 0,0 0,0l0 0zm-2 0c-1,0 -3,0 -3,-1 0,0 1,0 3,0 0,0 0,0 0,0 0,0 1,0 1,0 1,0 2,0 2,0 0,1 -1,1 -3,1z"/>
    <path class="fil0" d="M27 10c0,0 0,0 0,0 0,0 0,0 0,0 0,0 0,0 0,0 0,0 0,0 0,0z"/>
   </g>
   <g>
    <path class="fil0" d="M16 8c0,0 0,0 0,-1 0,0 0,0 0,0 0,0 -1,0 -1,0 0,-1 0,-1 0,-1 0,0 0,0 1,0 0,0 0,0 0,0l0 -1c0,0 0,0 0,0 0,0 0,0 0,0l0 0c0,0 0,0 0,0l0 0c0,0 0,0 0,0 0,0 -1,0 -1,0 0,0 0,0 0,0l1 0c0,0 0,0 0,0l-1 0c0,0 0,0 0,0 0,0 0,0 0,1 0,0 0,0 0,1 0,0 0,0 0,0 0,-1 0,-1 -1,-2 0,0 0,0 0,0l0 0c0,0 0,0 0,0l0 0c0,0 0,0 0,0 0,0 0,0 0,0 0,1 1,1 1,2 -1,0 -1,0 -1,0 0,0 0,-1 0,-1 0,0 0,0 0,0 0,0 0,0 0,0 0,0 -1,0 -1,0l0 0c0,0 0,0 0,0l0 0c0,1 0,1 0,1 0,0 1,-1 1,-1 0,0 0,0 0,0 0,1 0,1 0,1 0,0 0,0 -1,0 0,0 1,0 1,0 0,1 0,1 0,1l0 0c-1,0 -1,1 -1,1l0 2c0,0 1,1 1,1l1 0c1,0 1,-1 1,-1l0 -2c0,0 0,-1 0,-1l0 0z"/>
    <path class="fil0" d="M14 5l0 0c1,0 1,0 1,0 0,0 0,-1 0,-1 0,0 0,0 -1,0l0 0c0,1 0,1 0,1z"/>
    <path class="fil0" d="M13 5l1 0c0,0 0,0 0,-1l-1 0c0,0 0,0 0,0 0,0 0,1 0,1 0,0 0,0 0,0z"/>
    <path class="fil0" d="M14 4c0,1 0,1 0,0l0 0c0,0 0,0 0,0 0,0 0,0 0,0 0,0 0,0 0,0l0 0z"/>
    <path class="fil0" d="M16 5c0,0 0,0 0,0l0 0c0,0 0,0 0,0l0 0c0,0 0,0 0,0 0,0 0,0 0,0z"/>
    <path class="fil0" d="M16 5l0 0c0,0 0,0 0,0l0 1c0,0 0,0 0,0 0,0 0,0 0,0 0,-1 0,-1 0,-1z"/>
    <path class="fil0" d="M13 6l1 0c0,0 0,0 0,0 0,0 -1,0 -1,0 0,0 0,0 0,0l0 0c0,0 0,0 0,0z"/>
    <path class="fil0" d="M13 6l0 0c0,0 0,0 0,0 0,0 0,1 0,1 0,0 0,0 0,-1l0 0c0,0 0,0 0,0z"/>
    <path class="fil0" d="M13 6l0 0c0,0 0,0 0,0l0 0c0,0 0,0 0,0 0,0 0,0 0,0 0,0 0,0 0,0z"/>
   </g>
  </g>
 </g>
</svg>
