<?xml version="1.0" encoding="utf-8"?>
<!-- Generator: Adobe Illustrator 17.0.0, SVG Export Plug-In . SVG Version: 6.00 Build 0)  -->
<!DOCTYPE svg PUBLIC "-//W3C//DTD SVG 1.1//EN" "http://www.w3.org/Graphics/SVG/1.1/DTD/svg11.dtd">
<svg version="1.1" id="Layer_1" xmlns="http://www.w3.org/2000/svg" xmlns:xlink="http://www.w3.org/1999/xlink" x="0px" y="0px"
	 width="120.589px" height="60px" viewBox="0 0 120.589 60" enable-background="new 0 0 120.589 60" xml:space="preserve">
<g>
	<path fill="#231F20" d="M106.302,19.462c0,0.892-0.723,1.615-1.615,1.615H16.812c-0.892,0-1.615-0.723-1.615-1.615l0,0
		c0-0.892,0.723-1.615,1.615-1.615h87.875C105.579,17.847,106.302,18.57,106.302,19.462L106.302,19.462z"/>
	<rect x="49.701" y="20.057" fill="#231F20" width="22.096" height="39.943"/>
	<path fill="#231F20" d="M77.492,15.892c0,0.634-0.342,1.147-0.765,1.147H44.772c-0.422,0-0.765-0.514-0.765-1.147l0,0
		c0-0.634,0.342-1.147,0.765-1.147h31.955C77.149,14.745,77.492,15.259,77.492,15.892L77.492,15.892z"/>
	<path fill="#231F20" d="M60.96,1.87c-14.278,0-14.065,12.068-14.065,12.068H74.6C74.6,13.938,75.238,1.87,60.96,1.87z"/>
	<rect x="59.39" y="0" fill="#231F20" width="2.72" height="2.55"/>
	<g>
		<path fill="#FFFFFF" d="M26.348,12.287c-1.031,0-1.887-0.383-2.474-1.106c-0.663-0.817-0.999-2.066-0.999-3.712
			c0-0.902,0.267-1.848,0.526-2.763c0.087-0.307,0.169-0.597,0.241-0.886l0.05-0.198h5.314l0.05,0.198
			c0.073,0.289,0.155,0.579,0.241,0.886c0.259,0.915,0.526,1.861,0.526,2.763c0,1.646-0.336,2.895-0.999,3.712
			C28.234,11.904,27.379,12.287,26.348,12.287z"/>
		<path fill="#231F20" d="M26.348,12.287c-1.031,0-1.887-0.383-2.474-1.106c-0.663-0.817-0.999-2.066-0.999-3.712
			c2.126,0,4.564,0,6.947,0c0,1.646-0.336,2.895-0.999,3.712C28.234,11.904,27.379,12.287,26.348,12.287z"/>
		<path fill="#231F20" d="M28.8,3.883c0.292,1.164,0.759,2.429,0.759,3.586c0,3.383-1.438,4.557-3.212,4.557
			s-3.212-1.174-3.212-4.557c0-1.157,0.467-2.421,0.759-3.586H28.8 M29.208,3.36H28.8h-4.906h-0.408l-0.099,0.396
			c-0.072,0.285-0.153,0.573-0.239,0.879c-0.263,0.932-0.536,1.896-0.536,2.834c0,1.707,0.356,3.012,1.058,3.876
			c0.639,0.787,1.565,1.203,2.677,1.203s2.039-0.416,2.677-1.203c0.702-0.865,1.058-2.169,1.058-3.876
			c0-0.938-0.272-1.902-0.536-2.834c-0.086-0.305-0.168-0.594-0.239-0.879L29.208,3.36L29.208,3.36z"/>
		<rect x="25.963" y="12.141" fill="#231F20" width="0.77" height="5.372"/>
		<rect x="24.538" y="17.395" fill="#231F20" width="3.619" height="0.474"/>
	</g>
	<g>
		<path fill="#FFFFFF" d="M94.672,12.287c-1.031,0-1.887-0.383-2.474-1.106c-0.663-0.817-0.999-2.066-0.999-3.712
			c0-0.902,0.267-1.848,0.526-2.763c0.087-0.307,0.169-0.597,0.241-0.886l0.05-0.198h5.314l0.05,0.198
			c0.073,0.289,0.155,0.579,0.241,0.886c0.259,0.915,0.526,1.861,0.526,2.763c0,1.646-0.336,2.895-0.999,3.712
			C96.559,11.904,95.703,12.287,94.672,12.287z"/>
		<path fill="#231F20" d="M94.672,12.287c-1.031,0-1.887-0.383-2.474-1.106c-0.663-0.817-0.999-2.066-0.999-3.712
			c2.126,0,4.564,0,6.947,0c0,1.646-0.336,2.895-0.999,3.712C96.559,11.904,95.703,12.287,94.672,12.287z"/>
		<path fill="#231F20" d="M97.125,3.883c0.292,1.164,0.759,2.429,0.759,3.586c0,3.383-1.438,4.557-3.212,4.557
			c-1.774,0-3.212-1.174-3.212-4.557c0-1.157,0.467-2.421,0.759-3.586H97.125 M97.533,3.36h-0.408h-4.906h-0.408l-0.099,0.396
			c-0.072,0.285-0.153,0.573-0.239,0.879c-0.263,0.932-0.536,1.896-0.536,2.834c0,1.707,0.356,3.012,1.058,3.876
			c0.639,0.787,1.565,1.203,2.677,1.203c1.113,0,2.039-0.416,2.677-1.203c0.702-0.865,1.058-2.169,1.058-3.876
			c0-0.938-0.272-1.902-0.536-2.834c-0.086-0.305-0.168-0.594-0.239-0.879L97.533,3.36L97.533,3.36z"/>
		<rect x="94.287" y="12.141" fill="#231F20" width="0.77" height="5.372"/>
		<rect x="92.863" y="17.395" fill="#231F20" width="3.619" height="0.474"/>
	</g>
	<polygon fill="#ED1C24" points="61.047,52.363 32.347,17.805 90.862,17.805 	"/>
	<polygon fill="#231F20" points="30.943,59.602 33.901,59.602 32.112,37.89 32.079,37.89 32.079,35.47 8.391,35.47 4.825,10.437 
		0,8.025 5.709,36.298 5.709,37.89 5.7,37.89 3.912,59.602 7.048,59.602 8.747,39.001 28.289,39.001 	"/>
	<polygon fill="#231F20" points="89.633,59.602 86.674,59.602 88.463,37.89 88.497,37.89 88.497,35.47 112.194,35.47 
		115.761,10.437 120.589,8.025 114.877,36.298 114.877,37.89 114.886,37.89 116.675,59.602 113.538,59.602 111.838,39.001 
		92.289,39.001 	"/>
	<path fill="#231F20" d="M80.302,60H41.198c0,0,0-1.772,0-2.179c5.063,0,8.504-2.987,8.504-2.987h22.096
		c0,0,4.817,3.238,8.504,3.238C80.302,58.542,80.302,60,80.302,60z"/>
</g>
</svg>
