<?xml version="1.0" encoding="UTF-8"?>
<!DOCTYPE svg PUBLIC "-//W3C//DTD SVG 1.1//EN" "http://www.w3.org/Graphics/SVG/1.1/DTD/svg11.dtd">
<!-- Creator: CorelDRAW X8 -->
<svg xmlns="http://www.w3.org/2000/svg" xml:space="preserve" width="265.762mm" height="76.5304mm" version="1.1" style="shape-rendering:geometricPrecision; text-rendering:geometricPrecision; image-rendering:optimizeQuality; fill-rule:evenodd; clip-rule:evenodd"
viewBox="0 0 35215 10141"
 xmlns:xlink="http://www.w3.org/1999/xlink">
 <defs>
  <style type="text/css">
   <![CDATA[
    .fil0 {fill:#E34133}
    .fil1 {fill:black;fill-rule:nonzero}
   ]]>
  </style>
    <clipPath id="id0">
     <path d="M0 0l12622 0 0 8932 -12622 0 0 -8932z"/>
    </clipPath>
    <clipPath id="id1">
     <path d="M31004 3130l4211 0 0 5638 -4211 0 0 -5638z"/>
    </clipPath>
    <clipPath id="id2">
     <path d="M20723 3114l5024 0 0 7027 -5024 0 0 -7027z"/>
    </clipPath>
    <clipPath id="id3">
     <path d="M24192 4911l3601 0 0 3848 -3601 0 0 -3848z"/>
    </clipPath>
    <clipPath id="id4">
     <path d="M27602 4910l3601 0 0 3849 -3601 0 0 -3849z"/>
    </clipPath>
    <clipPath id="id5">
     <path d="M4996 325l35 0 0 24 -35 0 0 -24z"/>
    </clipPath>
    <clipPath id="id6">
     <path d="M5041 291l35 0 0 24 -35 0 0 -24z"/>
    </clipPath>
    <clipPath id="id7">
     <path d="M10886 6743l12 0 0 34 -12 0 0 -34z"/>
    </clipPath>
    <clipPath id="id8">
     <path d="M7238 4364l14 0 0 12 -14 0 0 -12z"/>
    </clipPath>
    <clipPath id="id9">
     <path d="M10897 6776l14 0 0 12 -14 0 0 -12z"/>
    </clipPath>
    <clipPath id="id10">
     <path d="M5030 314l12 0 0 12 -12 0 0 -12z"/>
    </clipPath>
    <clipPath id="id11">
     <path d="M12177 3851l8778 0 0 4952 -8778 0 0 -4952z"/>
    </clipPath>
 </defs>
 <g id="Camada_x0020_1">
  <metadata id="CorelCorpID_0Corel-Layer"/>
  <g id="_765268476960">
   <g style="clip-path:url(#id0)">
    <image x="0" y="0" width="12622" height="8932" xlink:href="LogoG9_Images\LogoG9_ImgID1.png"/>
   </g>
  </g>
  <path class="fil0" d="M7551 4376l114 65c41,25 74,38 117,63 234,139 247,158 440,289 181,123 430,376 577,522 34,34 51,60 84,96 21,23 21,27 40,50 302,359 540,771 705,1213 107,288 174,570 219,880 8,52 28,314 37,333l-6944 0c0,-641 256,-1347 597,-1860l178 -236c61,-75 152,-142 201,-215 -124,29 -425,297 -525,396 -40,39 -68,76 -106,118 -352,394 -615,1061 -709,1591 -13,73 -29,125 -29,206l-864 0c82,-351 207,-787 370,-1110 42,-82 82,-166 124,-247 19,-36 43,-77 65,-115 316,-524 480,-728 897,-1145l140 -129c21,-18 30,-31 52,-49 116,-93 718,-564 888,-604 17,11 78,83 96,106 215,275 408,494 643,804l250 355c113,169 217,343 305,526 12,25 21,48 30,71l33 79c0,-482 -579,-1399 -920,-1851 -22,-30 -160,-204 -168,-236 42,-10 365,-167 516,-202 8,29 343,424 380,473l91 122c4,6 7,11 14,20 10,14 11,14 20,25 -3,-127 -227,-474 -316,-604 -24,-35 -35,-43 -54,-81 63,-30 361,-98 446,-115 158,-31 314,-57 494,-77 332,-38 752,-45 1082,-2 360,47 612,89 952,193 289,89 456,163 713,286 434,206 756,433 1122,740l360 347c30,30 37,48 67,79 49,50 93,100 136,155l248 324c93,131 295,464 374,624l53 94c-4,-47 -121,-298 -146,-348 -135,-267 -284,-531 -462,-772 -191,-259 -334,-433 -573,-672l-537 -461 -291 -203c-592,-354 -1044,-580 -1767,-724 -251,-49 -512,-89 -768,-96 -58,-1 -62,-11 -123,-11l0 -269 942 0c-14,-52 -166,-217 -200,-260 -61,-76 -167,-163 -245,-226 -90,-73 -177,-132 -288,-184 -258,-120 -487,-120 -748,-3 -89,40 -142,75 -218,129 -180,131 -286,237 -424,406 -38,47 -70,85 -98,138l953 0 0 269c-178,0 -550,49 -719,77 -122,20 -225,41 -335,69 -91,23 -240,54 -314,89 -77,-114 -292,-342 -438,-560 -419,-629 -440,-1096 -50,-1733 44,-72 88,-136 138,-199l228 -266c60,-75 176,-185 248,-257 59,-58 109,-110 168,-168 36,-36 155,-127 177,-160 -42,11 -253,185 -305,223 -38,28 -64,53 -99,80 -148,116 -221,198 -329,289 -248,207 -545,554 -646,857 -33,99 -53,157 -71,277 -39,272 42,651 176,872 47,79 82,141 132,216l491 586c-80,18 -408,157 -471,190 -106,-71 -563,-681 -644,-803 -93,-138 -188,-320 -241,-488 -60,-187 -80,-432 -38,-653 35,-188 122,-376 204,-513l391 -519c117,-116 242,-272 347,-381l261 -289c-79,21 -604,447 -676,513 -24,23 -32,24 -56,45 -346,308 -683,622 -800,1096 -130,523 22,929 220,1274 78,135 162,228 251,343 80,103 406,425 478,532 -129,30 -700,447 -838,565 -23,19 -28,28 -53,48 -89,68 -407,378 -463,445 -249,298 -287,329 -522,679 -167,248 -297,517 -420,791 -111,248 -352,991 -352,1264l-931 0c15,54 492,643 550,752l10703 0c198,0 152,15 216,-64 20,-24 26,-28 46,-55l174 -208c86,-107 290,-336 349,-425l-1649 0 -63 -352c-154,-672 -457,-1268 -899,-1794l-98 -115c-106,-137 -489,-470 -657,-588 -450,-316 -619,-382 -1091,-569 -56,-22 -263,-92 -322,-93z"/>
  <g id="_765268477472">
   <g style="clip-path:url(#id1)">
    <image x="31004" y="3130" width="4211" height="5638" xlink:href="LogoG9_Images\LogoG9_ImgID2.png"/>
   </g>
  </g>
  <path class="fil0" d="M32039 7273c0,-439 118,-864 273,-1152 39,-73 87,-147 136,-212 134,-180 397,-420 657,-420 179,0 262,2 411,116 57,45 150,186 150,288l-47 233c-29,116 -332,1457 -355,1496 -41,69 -299,264 -391,316 -158,89 -276,111 -452,97 -324,-26 -382,-407 -382,-762zm1391 -3512l403 34c338,24 275,203 208,498 -24,102 -44,188 -68,291l-101 438c-12,49 -21,117 -38,153 -195,-46 -324,-146 -684,-146 -380,0 -618,74 -898,235 -60,34 -102,61 -159,99 -28,19 -44,30 -72,52l-139 119c-52,39 -151,150 -191,202 -340,439 -549,916 -549,1514 0,483 123,839 406,1119 27,27 50,43 79,67 189,154 433,194 693,194 273,0 520,-147 722,-287 65,-45 163,-141 198,-150 9,113 115,237 192,289 333,225 768,73 1087,-54 216,-86 198,-68 225,-201 16,-79 76,-292 77,-349 -151,73 -373,124 -549,124 -192,0 -180,-100 -180,-225 0,-101 29,-208 49,-298l392 -1696c75,-361 187,-775 263,-1138 21,-101 45,-200 68,-291 66,-266 127,-587 195,-849 32,-123 30,-73 -81,-237 -37,18 -282,22 -348,22l-1094 61c-41,18 -106,369 -106,410z"/>
  <g id="_765268475392">
   <g style="clip-path:url(#id2)">
    <image x="20723" y="3114" width="5024" height="7026" xlink:href="LogoG9_Images\LogoG9_ImgID3.png"/>
   </g>
  </g>
  <path class="fil0" d="M23154 5130l-628 0c-41,174 -83,352 -124,527l640 0 -218 1016c-69,348 -149,686 -219,1027 -87,419 -224,1278 -524,1652 -43,52 -112,114 -184,131 -50,-96 -125,-221 -199,-295 -322,-325 -810,-153 -810,317 0,279 287,471 516,471l17 0c365,0 529,-3 858,-201l238 -166c680,-598 743,-1029 928,-1922l359 -1683c15,-72 68,-292 68,-347l819 0c6,-72 66,-287 87,-384 11,-53 25,-88 25,-143l-819 0c72,-308 237,-1266 583,-1346 33,24 69,102 104,154 389,584 978,252 906,-244 -37,-252 -291,-415 -583,-415l-146 0c-260,0 -619,163 -800,299 -159,121 -203,162 -347,326 -70,81 -122,163 -184,254l-160 289c-61,150 -199,515 -203,683z"/>
  <g id="_730396215248">
   <g style="clip-path:url(#id3)">
    <image x="24192" y="4911" width="3601" height="3848" xlink:href="LogoG9_Images\LogoG9_ImgID4.png"/>
   </g>
  </g>
  <path class="fil0" d="M25745 8181c-229,0 -354,-80 -441,-243 -238,-446 -43,-1444 127,-1787 87,-177 149,-300 284,-435 180,-181 347,-227 603,-227 82,0 184,43 232,81 9,8 32,28 41,38 12,11 28,29 38,41 316,389 102,1476 -80,1867 -112,243 -265,465 -504,594 -73,40 -191,71 -300,71zm-1436 -1054c0,306 -2,451 112,740 189,476 670,774 1201,774 340,0 625,-74 860,-183 434,-201 827,-643 1006,-1092 235,-590 318,-1463 -169,-1947 -310,-309 -583,-390 -1046,-390 -541,0 -1050,276 -1389,642 -230,248 -442,671 -514,1000 -30,139 -61,295 -61,456z"/>
  <g id="_730424981952">
   <g style="clip-path:url(#id4)">
    <image x="27602" y="4910" width="3601" height="3849" xlink:href="LogoG9_Images\LogoG9_ImgID5.png"/>
   </g>
  </g>
  <path class="fil0" d="M29156 8181l-34 0c-636,0 -541,-991 -440,-1517 29,-153 72,-274 119,-408 76,-216 236,-492 429,-626 257,-179 678,-236 861,91 101,180 108,406 108,632 0,582 -185,1365 -639,1694 -112,81 -248,134 -404,134zm-1436 -976c0,455 120,800 373,1052 258,257 566,384 962,384 318,0 631,-79 845,-187 121,-60 215,-120 319,-197 191,-143 364,-337 496,-536 74,-110 123,-209 180,-337 158,-359 191,-658 191,-1065 0,-202 -55,-381 -113,-527 -78,-197 -190,-325 -333,-463 -29,-28 -55,-44 -88,-69 -62,-47 -136,-87 -207,-119 -313,-139 -781,-144 -1112,-46 -251,74 -482,179 -685,346l-203 179c-30,30 -36,44 -62,73 -296,334 -563,886 -563,1512z"/>
  <g id="_730424981312">
   <g style="clip-path:url(#id5)">
    <image x="4996" y="325" width="35.2198" height="23.9966" xlink:href="LogoG9_Images\LogoG9_ImgID6.png"/>
   </g>
  </g>
  <path class="fil0" d="M4997 348c32,-7 17,2 33,-22 -32,7 -17,-2 -33,22z"/>
  <g id="_730424663456">
   <g style="clip-path:url(#id6)">
    <image x="5041" y="291" width="35.2198" height="23.9966" xlink:href="LogoG9_Images\LogoG9_ImgID7.png"/>
   </g>
  </g>
  <path class="fil0" d="M5042 315c32,-8 16,1 33,-23 -33,8 -16,-1 -33,23z"/>
  <g id="_730421286016">
   <g style="clip-path:url(#id7)">
    <image x="10886" y="6743" width="12.0049" height="34.4247" xlink:href="LogoG9_Images\LogoG9_ImgID8.png"/>
   </g>
  </g>
  <path class="fil0" d="M10898 6777c0,-54 0,-22 -11,-34 0,53 -1,21 11,34z"/>
  <g id="_730396223888">
   <g style="clip-path:url(#id8)">
    <image x="7238" y="4364" width="13.86" height="11.9917" xlink:href="LogoG9_Images\LogoG9_ImgID9.png"/>
   </g>
  </g>
  <polygon class="fil0" points="7252,4376 7252,4365 7239,4374 "/>
  <g id="_730424827472">
   <g style="clip-path:url(#id9)">
    <image x="10897" y="6776" width="13.86" height="11.9917" xlink:href="LogoG9_Images\LogoG9_ImgID10.png"/>
   </g>
  </g>
  <polygon class="fil0" points="10898,6777 10898,6788 10911,6778 "/>
  <g id="_765495033744">
   <g style="clip-path:url(#id10)">
    <image x="5030" y="314" width="11.9917" height="11.9917" xlink:href="LogoG9_Images\LogoG9_ImgID11.png"/>
   </g>
  </g>
  <polygon class="fil0" points="5042,315 5030,326 "/>
  <g id="_765495033552">
   <g style="clip-path:url(#id11)">
    <image x="12177" y="3851" width="8778" height="4952" xlink:href="LogoG9_Images\LogoG9_ImgID12.png"/>
   </g>
  </g>
  <path class="fil1" d="M16677 8264c-479,251 -1075,377 -1788,377 -789,0 -1412,-199 -1868,-597 -454,-399 -682,-947 -682,-1646 0,-703 249,-1276 747,-1719 496,-444 1159,-666 1985,-666 520,0 979,66 1376,197l0 946c-379,-200 -842,-299 -1390,-299 -459,0 -832,135 -1121,407 -289,271 -433,633 -433,1087 0,459 129,815 388,1067 259,252 609,377 1049,377 265,0 476,-34 630,-102l0 -874 -982 0 0 -805 2089 0 0 2250zm942 202l0 -811c257,154 568,231 931,231 379,0 671,-117 878,-350 207,-235 311,-567 313,-997l-20 -7c-217,293 -547,440 -990,440 -402,0 -735,-128 -998,-384 -264,-256 -395,-587 -395,-995 0,-476 160,-859 483,-1147 321,-288 737,-433 1249,-433 525,0 943,181 1255,544 311,362 468,879 468,1553 0,799 -189,1421 -564,1865 -376,445 -899,666 -1574,666 -398,0 -744,-57 -1036,-175zm1421 -3700c-188,0 -342,70 -463,207 -120,138 -181,317 -181,536 0,227 59,404 180,534 119,130 281,195 487,195 187,0 340,-61 459,-185 118,-124 178,-279 178,-467 0,-235 -62,-430 -187,-586 -124,-156 -282,-234 -473,-234z"/>
 </g>
</svg>
