<?xml version="1.0" encoding="UTF-8"?>
<!DOCTYPE svg PUBLIC "-//W3C//DTD SVG 1.1//EN" "http://www.w3.org/Graphics/SVG/1.1/DTD/svg11.dtd">
<!-- Creator: CorelDRAW X8 -->
<svg xmlns="http://www.w3.org/2000/svg" xml:space="preserve" width="22.6244mm" height="16.0172mm" version="1.1" style="shape-rendering:geometricPrecision; text-rendering:geometricPrecision; image-rendering:optimizeQuality; fill-rule:evenodd; clip-rule:evenodd"
viewBox="0 0 529 374"
 xmlns:xlink="http://www.w3.org/1999/xlink">
 <defs>
  <style type="text/css">
   <![CDATA[
    .str0 {stroke:#FEFEFE;stroke-width:9.34678}
    .str1 {stroke:#FEFEFE;stroke-width:2.3367}
    .fil1 {fill:#FEFEFE}
    .fil0 {fill:#8AD647}
   ]]>
  </style>
 </defs>
 <g id="Camada_x0020_1">
  <metadata id="CorelCorpID_0Corel-Layer"/>
  <g id="_673626140624">
   <g>
    <g id="Layer_8_4_">
     <path class="fil0" d="M114 173l0 14 195 0 0 -14 51 0 0 14 33 0c22,0 41,-16 44,-37l0 -80 -145 0 0 -35c0,-5 -4,-9 -9,-9l-128 0c-5,0 -8,4 -8,9l0 35 -147 0 0 87c6,17 23,30 42,30l22 0 0 -14 50 0 0 0zm49 -130l112 0 0 27 -112 0 0 -27zm197 190l0 -35 33 0c18,0 34,-9 44,-22l0 198 -437 0 0 -195c10,11 25,19 42,19l22 0 0 35 50 0 0 -35 195 0 0 35 51 0z"/>
    </g>
   </g>
   <g>
   </g>
   <g>
   </g>
   <g>
   </g>
   <g>
   </g>
   <g>
   </g>
   <g>
   </g>
   <g>
   </g>
   <g>
   </g>
   <g>
   </g>
   <g>
   </g>
   <g>
   </g>
   <g>
   </g>
   <g>
   </g>
   <g>
   </g>
   <g>
   </g>
  </g>
  <circle class="fil0 str0" cx="437" cy="91" r="87"/>
  <path class="fil1 str1" d="M510 91l0 0c0,10 -8,18 -17,18l-38 0 0 38c0,9 -8,17 -18,17l0 0c-9,0 -17,-8 -17,-17l0 -38 -38 0c-10,0 -18,-8 -18,-18l0 0c0,-9 8,-17 18,-17l38 0 0 -38c0,-10 8,-18 17,-18l0 0c10,0 18,8 18,18l0 38 38 0c9,0 17,8 17,17z"/>
 </g>
</svg>
