<?xml version="1.0" encoding="UTF-8"?>
<!DOCTYPE svg PUBLIC "-//W3C//DTD SVG 1.1//EN" "http://www.w3.org/Graphics/SVG/1.1/DTD/svg11.dtd">
<!-- Creator: CorelDRAW X8 -->
<svg xmlns="http://www.w3.org/2000/svg" xml:space="preserve" width="17.9669mm" height="14.939mm" version="1.1" style="shape-rendering:geometricPrecision; text-rendering:geometricPrecision; image-rendering:optimizeQuality; fill-rule:evenodd; clip-rule:evenodd"
viewBox="0 0 716 596"
 xmlns:xlink="http://www.w3.org/1999/xlink">
 <defs>
  <style type="text/css">
   <![CDATA[
    .str0 {stroke:#FEFEFE;stroke-width:15.9467}
    .str1 {stroke:#FEFEFE;stroke-width:3.98667}
    .fil1 {fill:#FEFEFE}
    .fil0 {fill:#8AD647}
   ]]>
  </style>
 </defs>
 <g id="Camada_x0020_1">
  <metadata id="CorelCorpID_0Corel-Layer"/>
  <path class="fil0" d="M195 478c-2,0 -3,-1 -3,-4l0 -105c0,-11 24,8 40,16 6,4 11,7 17,10l18 11c8,-5 8,-9 22,-9 10,0 13,5 19,9 11,-7 23,-13 35,-20 6,-4 33,-21 37,-21 2,0 3,1 3,4l0 105c0,9 -14,-1 -21,-5l-54 -32c-7,5 -8,10 -21,10 -12,0 -13,-5 -20,-10 -8,5 -68,41 -72,41zm-34 -341c0,19 5,16 -4,25 -9,8 -7,24 -7,36 0,39 33,67 36,75 1,2 1,5 2,7 9,25 22,44 43,60 34,27 79,27 113,0 24,-18 35,-38 45,-66 3,-9 7,-8 16,-21 17,-25 20,-40 20,-70 0,-6 -1,-11 -3,-16 -7,-16 -9,3 -9,-29 0,-14 -2,-45 -5,-55 -5,-20 -14,-36 -29,-50 -5,-6 -15,-13 -22,-17 -39,-20 -88,-21 -129,-5 -21,9 -35,19 -41,40 -6,20 3,4 -11,20 -11,13 -15,45 -15,66zm-161 383c0,15 -2,15 23,23 99,33 203,32 308,32l72 -4c5,-1 13,-2 17,-2 42,-3 91,-12 130,-25 27,-9 25,-10 25,-24 0,-44 -26,-112 -59,-137 -4,-3 -8,-6 -13,-10 -10,-7 -37,-20 -49,-25 -12,-5 -22,-9 -34,-14l-36 -14c-2,2 -5,7 -8,10 -9,11 -15,17 -28,26 -51,35 -113,20 -149,-25l-9 -11 -34 13c-33,14 -70,28 -97,50 -33,26 -59,93 -59,137z"/>
  <circle class="fil0 str0" cx="551" cy="431" r="157"/>
  <path class="fil1 str1" d="M684 431l0 0c0,17 -15,31 -32,31l-69 0 0 69c0,18 -14,32 -32,32l0 0c-17,0 -31,-14 -31,-32l0 -69 -69 0c-18,0 -32,-14 -32,-31l0 0c0,-18 14,-32 32,-32l69 0 0 -69c0,-17 14,-31 31,-31l0 0c18,0 32,14 32,31l0 69 69 0c17,0 32,14 32,32z"/>
 </g>
</svg>
