<?xml version="1.0" encoding="UTF-8"?>
<!DOCTYPE svg PUBLIC "-//W3C//DTD SVG 1.1//EN" "http://www.w3.org/Graphics/SVG/1.1/DTD/svg11.dtd">
<!-- Creator: CorelDRAW X8 -->
<svg xmlns="http://www.w3.org/2000/svg" xml:space="preserve" width="20.4515mm" height="14.4075mm" version="1.1" style="shape-rendering:geometricPrecision; text-rendering:geometricPrecision; image-rendering:optimizeQuality; fill-rule:evenodd; clip-rule:evenodd"
viewBox="0 0 8957 6310"
 xmlns:xlink="http://www.w3.org/1999/xlink">
 <defs>
  <style type="text/css">
   <![CDATA[
    .str0 {stroke:#FEFEFE;stroke-width:175.181}
    .str1 {stroke:#FEFEFE;stroke-width:43.7952}
    .fil1 {fill:#FEFEFE}
    .fil0 {fill:#8AD647}
   ]]>
  </style>
 </defs>
 <g id="Camada_x0020_1">
  <metadata id="CorelCorpID_0Corel-Layer"/>
  <g id="_708571777408">
   <path class="fil0" d="M4558 3189c-140,3 -281,4 -425,4 -204,0 -404,-3 -599,-9 0,0 296,1175 0,2671 152,32 317,46 483,46 185,0 370,-17 541,-46 -297,-1603 0,-2666 0,-2666z"/>
   <path class="fil0" d="M4577 5418c18,135 40,276 67,422l16 87 -88 14c-184,31 -376,47 -555,47 -182,0 -350,-16 -501,-47l-85 -18 17 -84c28,-141 50,-278 68,-412 -865,57 -1494,228 -1494,432 0,227 784,414 1805,446 100,3 202,5 306,5 73,0 146,-1 217,-3 1064,-23 1895,-215 1895,-448 0,-217 -715,-398 -1668,-441z"/>
   <g>
    <path class="fil0" d="M7423 1869c13,0 26,0 39,0 0,0 0,0 0,0 -13,0 -26,0 -39,-1 0,1 0,1 0,1z"/>
    <path class="fil0" d="M4528 1337c18,38 30,80 30,127l0 482c0,199 -162,360 -360,360l-294 0c-198,0 -360,-161 -360,-360l0 -482c0,-46 11,-86 28,-123 -2017,59 -3572,428 -3572,875 0,444 1535,812 3534,874 195,6 395,9 599,9 144,0 285,-2 425,-5 2083,-45 3708,-421 3708,-878 0,-459 -1641,-836 -3738,-879zm-3670 502c0,-12 17,-23 38,-23l343 0c9,0 17,2 23,5 16,1 36,1 59,0 165,-10 392,5 482,-5 -40,58 -183,47 -392,47 -55,0 -102,-7 -137,-10 -6,8 -19,14 -35,14l-343 0c-21,0 -38,-11 -38,-23l0 -5zm1032 525c-6,0 -13,1 -19,1 -50,0 -100,-1 -150,-1 -24,0 -48,0 -72,-1 -2,0 -6,0 -7,1 -4,1 -6,2 -9,4 3,1 6,3 9,3 18,1 35,1 53,1 57,2 113,3 170,4 8,0 16,1 24,2 0,0 1,1 1,1 -8,1 -15,1 -23,1 -44,1 -88,0 -132,0 -28,0 -57,0 -85,0 -7,1 -15,0 -16,4 0,3 4,4 15,4 73,1 146,2 219,3 7,0 14,1 21,2 0,0 0,1 0,1 -10,1 -21,2 -32,2 -65,0 -131,1 -196,1 -6,0 -12,1 -18,1 -5,0 -9,1 -9,4 0,2 4,3 10,3 23,0 47,0 70,1 42,0 84,-1 126,-1 14,1 29,1 43,2 2,0 5,0 7,1 0,0 0,0 0,1 -8,0 -15,2 -23,2 -46,1 -91,3 -137,4 -32,1 -65,2 -97,3 -30,1 -58,-2 -81,-11 -29,-11 -64,-13 -99,-12 -13,0 -25,1 -38,1 -51,-1 -101,1 -152,1 -67,1 -134,2 -201,2 -54,1 -107,1 -161,2 -10,0 -20,1 -30,0 -17,-1 -33,-4 -41,-12 -12,-13 9,-28 40,-27 44,0 89,1 133,2 58,1 116,2 174,4 62,1 124,2 187,3 18,1 37,1 56,1 16,1 33,1 49,1 31,1 60,-2 84,-12 29,-10 61,-12 96,-10 69,3 138,6 207,9 12,0 23,1 34,2 0,1 0,1 0,2zm-433 -72c-29,0 -59,1 -89,1 -42,0 -83,-1 -124,-2 -415,-13 -734,-89 -734,-182 0,-101 384,-183 858,-183 474,0 859,82 859,183 0,95 -338,173 -770,183zm5061 -421c7,-1 13,-1 20,-1 50,0 100,0 149,0 24,1 48,1 72,1 3,0 6,1 8,0 3,-1 5,-3 8,-4 -3,-1 -6,-3 -9,-3 -17,-1 -35,-2 -52,-2 -57,-1 -114,-2 -170,-3 -9,0 -17,-1 -25,-2 0,-1 0,-1 0,-2 7,0 15,-1 22,-1 44,0 88,0 132,0 29,0 57,0 86,0 6,0 14,1 15,-4 1,-3 -3,-4 -15,-4 -73,-1 -146,-1 -219,-2 -7,-1 -14,-2 -21,-2 0,-1 0,-1 0,-2 11,0 22,-1 33,-1 65,-1 130,-1 196,-2 6,0 11,0 17,0 5,0 10,-1 10,-4 0,-3 -5,-4 -10,-4 -24,0 -47,0 -71,0 -42,0 -83,0 -125,0 -15,0 -29,-1 -43,-1 -3,0 -5,-1 -7,-1 0,0 -1,-1 -1,-1 8,-1 16,-2 24,-2 45,-2 91,-3 137,-5 32,-1 64,-2 96,-3 31,0 58,3 82,12 29,11 63,12 99,11 13,0 25,-1 38,-1 50,1 101,0 152,-1 67,0 134,-1 201,-2 53,0 107,-1 160,-1 10,0 20,-1 30,-1 18,1 34,4 41,12 12,13 -9,28 -39,28 -45,-1 -89,-2 -133,-3 -58,-1 -116,-2 -174,-3 -63,-1 -125,-2 -187,-4 -19,0 -37,0 -56,-1 -17,0 -33,-1 -49,-1 -31,0 -60,3 -85,12 -28,11 -60,12 -96,11 -69,-3 -138,-6 -207,-9 -11,-1 -22,-2 -34,-3 0,0 0,-1 0,-1zm1033 524c0,13 -17,23 -38,23l-344 0c-8,0 -16,-1 -23,-4 -16,-1 -36,-1 -58,0 -166,10 -392,-6 -482,4 39,-58 183,-46 392,-46 55,0 102,7 137,9 6,-8 19,-13 34,-13l344 0c21,0 38,10 38,23l0 4zm-511 -87c-474,0 -858,-82 -858,-183 0,-95 337,-173 770,-182 29,-1 58,-1 88,-1 42,0 84,0 125,2 415,13 733,89 733,181 0,101 -384,183 -858,183z"/>
    <path class="fil0" d="M7429 1836c0,0 0,0 0,-1 -10,0 -19,0 -29,0 0,1 0,1 0,1 10,0 19,0 29,0z"/>
   </g>
   <g>
    <path class="fil0" d="M4346 1234c-26,-30 -47,-90 23,-289 15,-44 32,-86 46,-120 -66,11 -167,25 -287,30 7,-146 73,-262 133,-339 6,7 13,12 18,16 14,8 32,-7 35,-23l37 -78c1,-4 1,-7 1,-10 8,-7 13,-11 13,-11l-14 -19c7,-4 11,-10 13,-18l0 -87c4,-15 -6,-37 -22,-35 -33,6 -96,44 -114,73 -8,13 6,31 22,35l70 32c-2,2 -4,3 -5,5l-73 -1c-16,-3 -38,7 -35,23 3,16 14,40 27,62 -67,83 -143,213 -149,377 -10,0 -20,0 -30,1 7,-195 -48,-345 -102,-443 17,-12 12,-43 -4,-58l-69 -109c-17,-17 -45,-17 -62,0l-69 109c-17,17 -22,52 0,61 36,15 109,20 161,11 52,93 109,240 101,429 -26,-1 -52,-1 -78,-2 -12,-57 -36,-103 -71,-140 -33,-34 -71,-54 -105,-65 -5,-3 -10,-5 -16,-5 -20,-6 -38,-8 -53,-10l-35 -6c-16,0 -29,14 -28,30l21 84c1,16 16,35 30,29 24,-11 61,-46 81,-76 25,11 51,26 74,50 26,28 46,63 57,106 -69,-5 -135,-13 -198,-25 16,38 35,85 52,133 48,141 52,228 14,272l-9 12c-57,65 -116,133 -116,219l0 482c0,151 123,273 273,273l294 0c150,0 272,-122 272,-273l0 -482c0,-89 -61,-159 -120,-226l-4 -4z"/>
    <path class="fil0" d="M3880 248l109 69c17,17 52,22 61,0 20,-46 22,-155 0,-200 -10,-22 -44,-17 -61,0l-109 69c-17,17 -17,45 0,62z"/>
    <path class="fil0" d="M3709 317l109 -69c17,-17 17,-45 0,-62l-109 -69c-17,-17 -52,-22 -61,0 -20,46 -22,155 0,200 10,22 44,17 61,0z"/>
    <path class="fil0" d="M3818 186c17,17 45,17 62,0l69 -109c17,-17 22,-52 0,-61 -46,-20 -155,-23 -200,0 -22,10 -17,44 0,61l69 109z"/>
    <path class="fil0" d="M4436 272c-14,-8 -31,7 -35,22l-37 79c-3,16 7,32 22,35l87 1c16,3 38,-7 35,-23 -5,-33 -43,-96 -72,-114z"/>
    <path class="fil0" d="M4465 445l-78 -37c-16,-3 -32,7 -36,23l0 87c-3,15 6,37 22,35 34,-6 97,-44 114,-73 9,-13 -6,-31 -22,-35z"/>
    <path class="fil0" d="M3653 629l84 -21c17,0 35,-15 29,-30 -14,-31 -66,-83 -99,-93 -15,-4 -29,14 -28,31l-16 85c0,16 14,29 30,28z"/>
    <path class="fil0" d="M3594 632l-84 21c-16,0 -35,15 -28,30 14,31 66,83 98,93 16,4 29,-14 29,-31l16 -85c-1,-16 -14,-29 -31,-28z"/>
    <path class="fil0" d="M3509 615l85 16c16,0 29,-14 29,-30l-22 -84c0,-16 -15,-35 -30,-28 -31,13 -82,66 -92,98 -5,15 14,29 30,28z"/>
   </g>
  </g>
  <circle class="fil0 str0" cx="7146" cy="1837" r="1724"/>
  <path class="fil1 str1" d="M8598 1837l0 0c0,192 -157,349 -349,349l-755 0 0 755c0,192 -157,349 -348,349l0 0c-192,0 -349,-157 -349,-349l0 -755 -755 0c-192,0 -349,-157 -349,-349l0 0c0,-191 157,-348 349,-348l755 0 0 -755c0,-192 157,-349 349,-349l0 0c191,0 348,157 348,349l0 755 755 0c192,0 349,157 349,348z"/>
 </g>
</svg>
